<svg width="900" height="50" xmlns="http://www.w3.org/2000/svg"><path fill="#212529" d="M0 0h900v50H0z"/><path d="m0 32 21.5.2c21.5.1 64.5.5 107.3-.2 42.9-.7 85.5-2.3 128.4-2 42.8.3 85.8 2.7 128.6 4.3 42.9 1.7 85.5 2.7 128.4 3.5 42.8.9 85.8 1.5 128.6 1.9 42.9.3 85.5.3 128.4.1 42.8-.1 85.8-.5 107.3-.6L900 39V0H0Z" fill="#ff483b"/><path d="m0 23 21.5 1.5C43 26 86 29 128.8 28.5c42.9-.5 85.5-4.5 128.4-5.2 42.8-.6 85.8 2 128.6 2 42.9 0 85.5-2.6 128.4-1.8 42.8.8 85.8 5.2 128.6 6.5 42.9 1.3 85.5-.3 128.4-2 42.8-1.7 85.8-3.3 107.3-4.2L900 23V0H0Z" fill="#ff766a"/><path d="m0 26 21.5-1.2C43 23.7 86 21.3 128.8 20.3c42.9-1 85.5-.6 128.4-.1 42.8.5 85.8 1.1 128.6 1 42.9-.2 85.5-1.2 128.4-2.5 42.8-1.4 85.8-3 128.6-3.2 42.9-.2 85.5 1.2 128.4 1.7 42.8.5 85.8.1 107.3 0L900 17V0H0Z" fill="#ff9d96"/><path d="m0 10 21.5-.2c21.5-.1 64.5-.5 107.3 1 42.9 1.5 85.5 4.9 128.4 5.9 42.8 1 85.8-.4 128.6-1.7 42.9-1.3 85.5-2.7 128.4-2.2 42.8.5 85.8 2.9 128.6 3.5 42.9.7 85.5-.3 128.4-1.6 42.8-1.4 85.8-3 107.3-3.9L900 10V0H0Z" fill="#ffc2c0"/><path d="M0 8h21.5C43 8 86 8 128.8 7.5 171.7 7 214.3 6 257.2 5.3c42.8-.6 85.8-1 128.6-.5 42.9.5 85.5 1.9 128.4 2.4 42.8.5 85.8.1 128.6-.5C685.7 6 728.3 5 771.2 4.8c42.8-.1 85.8.5 107.3.9L900 6V0H0Z" fill="#ffe8e8"/></svg>