<svg width="900" height="100" xmlns="http://www.w3.org/2000/svg"><path fill="#55e0b6" d="M0 0h900v100H0z"/><path d="M0 52h180v-6h180v-8h180v13h180v-9h180v-2 61H0Z" fill="#74ddba"/><path d="M0 49h180v-3h180v13h180v-5h180v-3h180v-2 52H0Z" fill="#58c1b0"/><path d="M0 62h180v-7h360v3h180v1h180v-6 48H0Z" fill="#46a5a2"/><path d="M0 64h180v1h180v3h360v-7h180v40H0Z" fill="#3c8990"/><path d="M0 75h180v1h180v-7h180v-1h180v-1h180v34H0Z" fill="#376e79"/><path d="M0 75h180v-1h180v5h180v-4h180v4h180v22H0Z" fill="#335460"/><path d="M0 84h180v-4h180v8h180v-8h180v2h180v19H0Z" fill="#2c3b44"/><path d="M0 91h180v3h180v-2h360v2h180v-5 12H0Z" fill="#212529"/></svg>