<svg width="900" height="100" xmlns="http://www.w3.org/2000/svg"><path d="m0 35 82 6 82-1 81-18 82-3 82 25 82-18 82 14 82-9 81 9 82-12 82 11V0H0Z" fill="#fff"/><path d="m0 61 82 4 82-6 81 7 82-17 82 13 82-1 82-5 82-2 81 14 82-16 82 2V37l-82-11-82 12-81-9-82 9-82-14-82 18-82-25-82 3-81 18-82 1-82-6Z" fill="#daf8ec"/><path d="m0 76 82 2h82l81-1 82-1 82 1 82-3 82 4 82 1 81-1 82-2 82-3V52l-82-2-82 16-81-14-82 2-82 5-82 1-82-13-82 17-81-7-82 6-82-4Z" fill="#b4f1da"/><path d="m0 89 82-2 82 2 81-1 82 7 82-11h82l82 5 82 2 81 3 82-8 82 2V71l-82 3-82 2-81 1-82-1-82-4-82 3-82-1-82 1-81 1H82L0 74Z" fill="#8ae9c8"/><path d="M0 101h900V86l-82-2-82 8-81-3-82-2-82-5h-82l-82 11-82-7-81 1-82-2-82 2Z" fill="#55e0b6"/></svg>