<svg width="900" height="30" xmlns="http://www.w3.org/2000/svg"><path fill="#fff" d="M0 0h900v30H0z"/><path d="M0 18h8.3c8.4 0 25 0 41.7-.8 16.7-.9 33.3-2.5 50-3.9 16.7-1.3 33.3-2.3 50-2.5 16.7-.1 33.3.5 50 2.5 16.7 2 33.3 5.4 50 5 16.7-.3 33.3-4.3 50-7 16.7-2.6 33.3-4 50-4.5 16.7-.5 33.3-.1 50 1.5 16.7 1.7 33.3 4.7 50 4.5 16.7-.1 33.3-3.5 50-3.8 16.7-.3 33.3 2.3 50 3.8 16.7 1.5 33.3 1.9 50 1.7 16.7-.2 33.3-.8 50-.8 16.7 0 33.3.6 50 1.6 16.7 1 33.3 2.4 50 3.7 16.7 1.3 33.3 2.7 50 3.3 16.7.7 33.3.7 50 .5 16.7-.1 33.3-.5 41.7-.6l8.3-.2V0H0Z" fill="#212529"/></svg>